<?xml version="1.0" encoding="utf-8"?>
<!-- Generator: Adobe Illustrator 20.0.0, SVG Export Plug-In . SVG Version: 6.00 Build 0)  -->
<svg version="1.1" id="Layer_1" xmlns="http://www.w3.org/2000/svg" xmlns:xlink="http://www.w3.org/1999/xlink" x="0px" y="0px"
	 viewBox="0 0 502.8 134" style="enable-background:new 0 0 502.8 134;" xml:space="preserve">
<style type="text/css">
	.st0{fill:#B7D2EC;}
	.st1{fill:#4185C5;}
	.st2{fill:#EE7D22;}
</style>
<path class="st0" d="M502.8,134H0V0h502.8V134z M5.7,128.2H497V5.8H5.7V128.2z"/>
<g>
	<path class="st0" d="M30.7,30.9h11v72.7h-11V30.9z"/>
	<path class="st1" d="M101.6,30.7h27.8v8.7h-16.8v21.8h13.2v8.7h-13.2v33.6h-11V30.7z"/>
	<path class="st1" d="M138.9,30.6h12c1.4,0,2.9,0.1,4.5,0.2s3.3,0.4,4.9,0.8s3.2,1.1,4.7,2c1.5,0.9,2.9,2.1,4,3.6
		c1.2,1.5,2.1,3.5,2.8,5.8c0.7,2.3,1.1,5.1,1.1,8.4v1.8c0,5.5-0.8,10-2.4,13.5c-1.6,3.5-3.9,6-7,7.5l11.7,29.1h-11.7l-9.7-27.2h-4.1
		v27.2h-10.8V30.6z M151.4,68.2c1.9,0,3.6-0.2,4.9-0.6s2.4-1.1,3.2-2.2c0.8-1,1.4-2.3,1.8-4s0.6-3.7,0.6-6.2v-5.7
		c0-1.9-0.2-3.5-0.5-4.9s-0.9-2.5-1.7-3.4c-0.8-0.9-1.9-1.5-3.2-2c-1.3-0.4-3-0.6-5-0.6h-1.7v29.5L151.4,68.2L151.4,68.2z"/>
	<path class="st1" d="M200.1,104c-1.2,0-2.4-0.1-3.8-0.3c-1.4-0.2-2.7-0.6-4-1.2s-2.6-1.4-3.9-2.5c-1.2-1.1-2.3-2.5-3.3-4.3
		s-1.7-4-2.3-6.6s-0.9-5.8-0.9-9.4V53.9c0-3.7,0.3-6.8,0.9-9.4c0.6-2.6,1.4-4.8,2.3-6.6c1-1.8,2.1-3.2,3.3-4.2
		c1.2-1,2.5-1.9,3.9-2.4c1.3-0.6,2.7-0.9,4-1.1s2.6-0.3,3.7-0.3s2.3,0.1,3.6,0.2c1.3,0.2,2.6,0.5,4,1c1.3,0.5,2.6,1.3,3.9,2.3
		c1.2,1,2.4,2.4,3.3,4.2c1,1.8,1.7,4,2.3,6.6s0.9,5.8,0.9,9.5v25.8c0,3.6-0.3,6.7-0.9,9.3c-0.6,2.6-1.4,4.8-2.3,6.6
		c-1,1.8-2.1,3.3-3.3,4.3c-1.3,1.1-2.6,1.9-3.9,2.6c-1.3,0.6-2.6,1-3.9,1.2C202.4,103.9,201.2,104,200.1,104z M200.1,95.7
		c1.1,0,2-0.2,2.8-0.6s1.5-1,2-1.9s0.9-2.1,1.2-3.6c0.3-1.5,0.4-3.4,0.4-5.6V50.9c0-2.3-0.1-4.3-0.4-5.8c-0.3-1.6-0.7-2.8-1.2-3.8
		s-1.2-1.6-2-2s-1.8-0.6-2.8-0.6c-1.1,0-2.1,0.2-2.9,0.6c-0.8,0.4-1.5,1.1-2,2c-0.5,1-0.9,2.2-1.2,3.8c-0.3,1.6-0.4,3.5-0.4,5.8V84
		c0,2.3,0.1,4.2,0.4,5.6c0.3,1.5,0.7,2.7,1.2,3.6s1.2,1.5,2,1.9C198.1,95.5,199,95.7,200.1,95.7z"/>
	<path class="st1" d="M284.4,39.2h-11.8v-8.7H307v8.7h-11.7v64.1h-11V39.2H284.4z"/>
	<path class="st2" d="M316.6,30.4h11v64.1h15v8.7h-26V30.4z"/>
	<path class="st2" d="M362.9,30.2h12.7l13.5,72.7h-11.2l-2-13h-13.3l-1.9,13h-11.2L362.9,30.2z M374.6,81.6l-5.1-36.2H369l-5.2,36.2
		H374.6z"/>
	<path class="st2" d="M395.9,30.1h11.2c1.6,0,3.4,0.1,5.1,0.2c1.8,0.1,3.5,0.4,5.2,0.7c1.7,0.4,3.3,0.9,4.8,1.6s2.8,1.7,3.9,2.9
		c1.1,1.2,2,2.7,2.7,4.5s1,4,1,6.5V50c0,1.9-0.3,3.7-0.8,5.3c-0.6,1.6-1.3,3-2.2,4.3c-0.9,1.2-1.9,2.3-3.1,3.1s-2.4,1.4-3.6,1.6v0.3
		c3.6,0.7,6.3,2.4,8.2,5.1c1.8,2.8,2.7,6.3,2.7,10.6V84c0,2.6-0.3,4.9-0.9,6.9c-0.6,1.9-1.4,3.6-2.4,5c-1.1,1.4-2.3,2.5-3.7,3.4
		s-3,1.6-4.8,2.1c-1.7,0.5-3.6,0.8-5.5,1c-2,0.2-4,0.3-6,0.3h-11.6V30.1H395.9z M408.9,61.2c1.5,0,2.8-0.2,4-0.5
		c1.2-0.4,2.3-0.9,3.1-1.7c0.9-0.8,1.5-1.7,2-2.9s0.7-2.7,0.7-4.4v-3c0-1.7-0.2-3.2-0.5-4.5s-0.9-2.4-1.7-3.3
		c-0.8-0.9-1.8-1.6-3.1-2.1s-2.8-0.7-4.6-0.7h-2.1v23.1C406.7,61.2,408.9,61.2,408.9,61.2z M409.9,95.2c1.5,0,2.8-0.2,4-0.6
		s2.2-1,3.1-1.8c0.9-0.8,1.5-1.8,2-3.1c0.5-1.2,0.7-2.7,0.7-4.4v-5.7c0-1.7-0.2-3.2-0.5-4.5s-0.9-2.4-1.7-3.3s-1.8-1.6-3-2
		c-1.2-0.5-2.8-0.7-4.6-0.7h-3.2v26.1H409.9z"/>
	<path class="st2" d="M437.8,88.6c0-1.6,0.1-3,0.3-4.3s0.5-2.7,0.8-4.3h8.6v3.5c0,2,0.1,3.7,0.4,5.2c0.2,1.5,0.6,2.8,1.2,3.8
		c0.6,1,1.3,1.8,2.2,2.3s2.1,0.8,3.4,0.8c2.1,0,3.7-0.6,4.8-1.7s1.7-2.8,1.7-5c0-1.1-0.1-2.2-0.2-3.1c-0.2-1-0.4-1.9-0.8-2.8
		c-0.4-0.9-0.9-1.9-1.6-3c-0.7-1-1.5-2.2-2.5-3.5l-11.5-13.7c-2-2.6-3.6-5.2-4.7-7.9c-1.1-2.7-1.7-5.5-1.7-8.5
		c0-2.4,0.4-4.6,1.1-6.6c0.8-2,1.8-3.8,3.3-5.2c1.4-1.5,3.2-2.6,5.3-3.4s4.5-1.2,7.1-1.2c3.2,0,5.9,0.5,8,1.4
		c2.1,0.9,3.9,2.1,5.1,3.6c1.3,1.5,2.2,3.1,2.7,5c0.5,1.8,0.8,3.7,0.8,5.5c0,1.6-0.1,3-0.4,4.3c-0.2,1.3-0.5,2.8-0.8,4.4h-8.5v-3.4
		c0-3.9-0.6-6.8-1.7-8.9c-1.1-2.1-2.9-3.1-5.4-3.1c-2.1,0-3.6,0.6-4.6,1.7s-1.6,2.6-1.6,4.5c0,1,0.1,1.9,0.2,2.8
		c0.2,0.8,0.4,1.6,0.7,2.3s0.7,1.4,1.1,2c0.4,0.7,0.9,1.3,1.4,2l12.8,15.5c2.3,3,4.1,6,5.4,8.8c1.2,2.8,1.9,5.8,1.9,8.9
		c0,2.6-0.4,4.9-1.2,7s-2,3.8-3.5,5.3c-1.5,1.4-3.3,2.6-5.5,3.3c-2.1,0.8-4.5,1.2-7.2,1.2c-3.3,0-6-0.4-8.2-1.3s-3.9-2-5.2-3.5
		c-1.3-1.4-2.2-3.1-2.7-4.9C438.1,92.4,437.8,90.6,437.8,88.6z"/>
	<path class="st0" d="M82.6,31.1h-3l0,0v46.2L62.8,31.1h-8.9v72.7h6.7h3l0,0V82.5c0-1.4,0-2.6,0-3.9v-20l16.8,45.3h9V31.1H82.6z"/>
	<path class="st1" d="M257.6,31h-3l0,0v46.2L237.8,31h-8.9v72.7h6.7h3.1l0,0V82.4c0-1.4,0-2.6,0-3.9v-20l16.8,45.3h9V31H257.6z"/>
</g>
</svg>
